<svg width="82" height="75" viewBox="0 0 82 75" fill="none" xmlns="http://www.w3.org/2000/svg">
<g opacity="0.45">
<rect width="75" height="75" rx="20" fill="white" fill-opacity="0.3"/>
<rect x="7.25" y="0.25" width="74.5" height="74.5" rx="19.75" stroke="white" stroke-width="0.5"/>
<path d="M50.8351 39.3947L51.5406 38.686L50.8351 39.3947ZM44.5 34.0053L44.5556 35.0037V35.0037L44.5 34.0053ZM37.5 39.3947L37.5439 38.3957V38.3957L37.5 39.3947ZM31 37.9253L30.8356 38.9117V38.9117L31 37.9253ZM22.3646 36.1671C21.9381 36.518 21.8769 37.1482 22.2278 37.5746L27.9462 44.5245C28.2971 44.9509 28.9273 45.0122 29.3538 44.6613C29.7803 44.3104 29.8415 43.6802 29.4906 43.2537L24.4076 37.0761L30.5852 31.9931C31.0117 31.6422 31.0729 31.012 30.722 30.5855C30.3711 30.159 29.7409 30.0978 29.3144 30.4487L22.3646 36.1671ZM59 39.3947C58.6307 38.4653 58.6309 38.4653 58.6311 38.4652C58.6311 38.4652 58.6313 38.4651 58.6313 38.4651C58.6315 38.4651 58.6315 38.465 58.6314 38.4651C58.6313 38.4651 58.6308 38.4653 58.63 38.4656C58.6284 38.4662 58.6254 38.4674 58.6211 38.4691C58.6125 38.4725 58.5985 38.4778 58.5794 38.4851C58.5414 38.4995 58.4831 38.5212 58.407 38.5485C58.2546 38.6032 58.0314 38.68 57.7552 38.7657C57.2003 38.938 56.4443 39.1424 55.6275 39.2777C54.8042 39.4141 53.9607 39.473 53.2167 39.3806C52.4702 39.2878 51.9106 39.0544 51.5406 38.686L50.8351 39.3947L50.1295 40.1033C50.924 40.8944 51.9673 41.2407 52.9701 41.3653C53.9754 41.4903 55.0275 41.4043 55.9543 41.2508C56.8876 41.0962 57.7362 40.8658 58.3483 40.6758C58.6556 40.5804 58.9065 40.4941 59.0824 40.431C59.1704 40.3995 59.2398 40.3736 59.2883 40.3552C59.3126 40.346 59.3317 40.3387 59.3453 40.3334C59.3521 40.3308 59.3575 40.3286 59.3615 40.3271C59.3635 40.3263 59.3652 40.3256 59.3664 40.3251C59.3671 40.3248 59.3677 40.3246 59.3681 40.3244C59.3684 40.3243 59.3686 40.3242 59.3688 40.3242C59.369 40.3241 59.3693 40.324 59 39.3947ZM50.8351 39.3947L51.5406 38.686C51.0331 38.1807 50.567 37.6011 50.0906 36.9842C49.6277 36.3846 49.1382 35.7264 48.6332 35.1508C47.6246 34.0008 46.3215 32.9023 44.4444 33.0068L44.5 34.0053L44.5556 35.0037C45.4757 34.9525 46.2268 35.4402 47.1297 36.4696C47.5805 36.9836 48.011 37.5633 48.5076 38.2065C48.9908 38.8323 49.5236 39.5 50.1295 40.1033L50.8351 39.3947ZM44.5 34.0053L44.4444 33.0068C43.3929 33.0654 42.5621 33.5941 41.9074 34.1999C41.2647 34.7946 40.6979 35.5544 40.2043 36.2036C39.6813 36.8914 39.2329 37.4657 38.7614 37.8716C38.3088 38.2613 37.9292 38.4126 37.5439 38.3957L37.5 39.3947L37.4561 40.3938C38.5285 40.4409 39.3885 39.9708 40.0663 39.3873C40.7252 38.8201 41.298 38.0695 41.7963 37.4141C42.3239 36.7203 42.7783 36.1189 43.2657 35.6679C43.7412 35.2279 44.1497 35.0263 44.5556 35.0037L44.5 34.0053ZM37.5 39.3947L37.5439 38.3957C36.1305 38.3336 35.3781 38.12 34.5899 37.8561C33.7527 37.5759 32.8147 37.2139 31.1644 36.9389L31 37.9253L30.8356 38.9117C32.3014 39.156 33.0854 39.4616 33.9551 39.7527C34.8738 40.0602 35.8134 40.3216 37.4561 40.3938L37.5 39.3947ZM31 37.9253L31.1644 36.9389C29.6369 36.6843 27.6149 36.4354 25.9875 36.2511C25.1711 36.1587 24.4491 36.082 23.9311 36.0283C23.672 36.0015 23.4639 35.9805 23.3203 35.9661C23.2485 35.9589 23.1928 35.9534 23.155 35.9497C23.1361 35.9478 23.1216 35.9464 23.1118 35.9454C23.107 35.945 23.1032 35.9446 23.1007 35.9443C23.0994 35.9442 23.0985 35.9441 23.0978 35.9441C23.0975 35.944 23.0972 35.944 23.0971 35.944C23.097 35.944 23.0969 35.944 23.0968 35.944C23.0968 35.944 23.0967 35.944 23 36.9393C22.9033 37.9346 22.9033 37.9346 22.9033 37.9346C22.9033 37.9346 22.9033 37.9346 22.9034 37.9346C22.9035 37.9346 22.9037 37.9346 22.904 37.9346C22.9046 37.9347 22.9054 37.9348 22.9066 37.9349C22.9089 37.9351 22.9124 37.9355 22.917 37.9359C22.9264 37.9368 22.9403 37.9382 22.9588 37.94C22.9957 37.9437 23.0504 37.9491 23.1211 37.9562C23.2627 37.9703 23.4686 37.9911 23.7252 38.0177C24.2384 38.0708 24.9539 38.1469 25.7625 38.2384C27.3851 38.4222 29.3631 38.6663 30.8356 38.9117L31 37.9253Z" fill="white"/>
</g>
</svg>
